name C:\Users\u0101727\Documents\MyRepositories\upper-imu-dc\Results\main_tracking\Case_43\FLX01_angularVelocities_bodyFrame.mot
datacolumns 4
datarows 82
range 0.51000000 1.32000000
endheader 
time	radius_imu_x	radius_imu_y	radius_imu_z	
          0.51000000	         -0.17639573	         -2.87216957	         -0.36458348	
          0.52000000	         -0.17951110	         -2.86933445	         -0.37543746	
          0.53000000	         -0.18334289	         -2.86591052	         -0.38635586	
          0.54000000	         -0.18814224	         -2.86182407	         -0.39754456	
          0.55000000	         -0.19417962	         -2.85706849	         -0.40904720	
          0.56000000	         -0.20168507	         -2.85171021	         -0.42091739	
          0.57000000	         -0.21084810	         -2.84591379	         -0.43322134	
          0.58000000	         -0.22182421	         -2.83992727	         -0.44603090	
          0.59000000	         -0.23473149	         -2.83406830	         -0.45941801	
          0.60000000	         -0.24965143	         -2.82869894	         -0.47345265	
          0.61000000	         -0.26663323	         -2.82419187	         -0.48820009	
          0.62000000	         -0.28569833	         -2.82089158	         -0.50371668	
          0.63000000	         -0.30684507	         -2.81907567	         -0.52004566	
          0.64000000	         -0.33005199	         -2.81892377	         -0.53721352	
          0.65000000	         -0.35527799	         -2.82050213	         -0.55522762	
          0.66000000	         -0.38246029	         -2.82376592	         -0.57407559	
          0.67000000	         -0.41151254	         -2.82857205	         -0.59372595	
          0.68000000	         -0.44232516	         -2.83469303	         -0.61412965	
          0.69000000	         -0.47476833	         -2.84182748	         -0.63522229	
          0.70000000	         -0.50869642	         -2.84960853	         -0.65692697	
          0.71000000	         -0.54395212	         -2.85761507	         -0.67915686	
          0.72000000	         -0.58036881	         -2.86539045	         -0.70181744	
          0.73000000	         -0.61777171	         -2.87247044	         -0.72480848	
          0.74000000	         -0.65597970	         -2.87841680	         -0.74802711	
          0.75000000	         -0.69480912	         -2.88285077	         -0.77137212	
          0.76000000	         -0.73407594	         -2.88548219	         -0.79474713	
          0.77000000	         -0.77360048	         -2.88613128	         -0.81806426	
          0.78000000	         -0.81321547	         -2.88474057	         -0.84124825	
          0.79000000	         -0.85276891	         -2.88137715	         -0.86423671	
          0.80000000	         -0.89213569	         -2.87622395	         -0.88698484	
          0.81000000	         -0.93121817	         -2.86956215	         -0.90946413	
          0.82000000	         -0.96994466	         -2.86174962	         -0.93166061	
          0.83000000	         -1.00826683	         -2.85319411	         -0.95357265	
          0.84000000	         -1.04614617	         -2.84432713	         -0.97520239	
          0.85000000	         -1.08354668	         -2.83557669	         -0.99655001	
          0.86000000	         -1.12042736	         -2.82734133	         -1.01760724	
          0.87000000	         -1.15673905	         -2.81996648	         -1.03835349	
          0.88000000	         -1.19242962	         -2.81372301	         -1.05875734	
          0.89000000	         -1.22745304	         -2.80878931	         -1.07878138	
          0.90000000	         -1.26177897	         -2.80523692	         -1.09838836	
          0.91000000	         -1.29540122	         -2.80301896	         -1.11754750	
          0.92000000	         -1.32834464	         -2.80196012	         -1.13624041	
          0.93000000	         -1.36067200	         -2.80174762	         -1.15446722	
          0.94000000	         -1.39248963	         -2.80192309	         -1.17225292	
          0.95000000	         -1.42394559	         -2.80187712	         -1.18965173	
          0.96000000	         -1.45521471	         -2.80085059	         -1.20674794	
          0.97000000	         -1.48647068	         -2.79794788	         -1.22365230	
          0.98000000	         -1.51784797	         -2.79216628	         -1.24049322	
          0.99000000	         -1.54940240	         -2.78244350	         -1.25740394	
          1.00000000	         -1.58108548	         -2.76772050	         -1.27451052	
          1.01000000	         -1.61274118	         -2.74701129	         -1.29192289	
          1.02000000	         -1.64412363	         -2.71946704	         -1.30972906	
          1.03000000	         -1.67493060	         -2.68442241	         -1.32799288	
          1.04000000	         -1.70484089	         -2.64141955	         -1.34675495	
          1.05000000	         -1.73354087	         -2.59021540	         -1.36603445	
          1.06000000	         -1.76073838	         -2.53077741	         -1.38582881	
          1.07000000	         -1.78616943	         -2.46327010	         -1.40611065	
          1.08000000	         -1.80959845	         -2.38803388	         -1.42682490	
          1.09000000	         -1.83081469	         -2.30555575	         -1.44788584	
          1.10000000	         -1.84962964	         -2.21643478	         -1.46917584	
          1.11000000	         -1.86587978	         -2.12134750	         -1.49054664	
          1.12000000	         -1.87943409	         -2.02101723	         -1.51182273	
          1.13000000	         -1.89020246	         -1.91618978	         -1.53280582	
          1.14000000	         -1.89814226	         -1.80761528	         -1.55327905	
          1.15000000	         -1.90326085	         -1.69603532	         -1.57301059	
          1.16000000	         -1.90561293	         -1.58217399	         -1.59175721	
          1.17000000	         -1.90529163	         -1.46673070	         -1.60926788	
          1.18000000	         -1.90241518	         -1.35037322	         -1.62528762	
          1.19000000	         -1.89711234	         -1.23373017	         -1.63956102	
          1.20000000	         -1.88950979	         -1.11738365	         -1.65183503	
          1.21000000	         -1.87972300	         -1.00186314	         -1.66186113	
          1.22000000	         -1.86785129	         -0.88764228	         -1.66939773	
          1.23000000	         -1.85397752	         -0.77514039	         -1.67421416	
          1.24000000	         -1.83817109	         -0.66472894	         -1.67609626	
          1.25000000	         -1.82049295	         -0.55674214	         -1.67485180	
          1.26000000	         -1.80100093	         -0.45148902	         -1.67031303	
          1.27000000	         -1.77975412	         -0.34926404	         -1.66233538	
          1.28000000	         -1.75681338	         -0.25035605	         -1.65079563	
          1.29000000	         -1.73223536	         -0.15505603	         -1.63559466	
          1.30000000	         -1.70606268	         -0.06366164	         -1.61666304	
          1.31000000	         -1.67831775	          0.02352722	         -1.59395873	
          1.32000000	         -1.64900368	          0.10621616	         -1.56745843	
